<?xml version="1.0" standalone="no"?>
<!DOCTYPE svg PUBLIC "-//W3C//DTD SVG 20010904//EN"
 "http://www.w3.org/TR/2001/REC-SVG-20010904/DTD/svg10.dtd">
<svg version="1.0" xmlns="http://www.w3.org/2000/svg"
 width="240.000000pt" height="240.000000pt" viewBox="0 0 240.000000 240.000000"
 preserveAspectRatio="xMidYMid meet">
<metadata>
Created by potrace 1.11, written by Peter Selinger 2001-2013
</metadata>
<g transform="translate(0.000000,240.000000) scale(0.100000,-0.100000)"
fill="#000000" stroke="none">
<path d="M193 1916 c2 -264 7 -496 10 -513 4 -18 9 -45 11 -60 18 -123 128
-431 173 -484 7 -8 13 -19 13 -23 0 -5 14 -28 30 -53 17 -24 30 -46 30 -48 0
-5 62 -99 70 -105 3 -3 19 -23 35 -45 76 -104 245 -282 365 -385 36 -30 66
-58 68 -62 2 -5 10 -8 17 -8 7 0 15 -3 17 -8 2 -4 32 -28 68 -54 36 -26 71
-52 78 -58 9 -8 22 -6 50 11 53 33 214 148 233 168 8 9 35 32 59 51 51 41 177
167 238 236 23 27 48 56 55 64 57 65 203 280 190 280 -3 0 1 8 9 18 25 28 83
158 126 282 35 103 44 137 59 230 15 93 18 195 18 595 l0 450 -1013 1 -1013 2
4 -482z"/>
</g>
</svg>
